<?xml version="1.0" encoding="UTF-8"?>
<svg id="Warstwa_1" xmlns="http://www.w3.org/2000/svg" version="1.1" viewBox="0 0 2002.28 297.8">
  <!-- Generator: Adobe Illustrator 30.2.1, SVG Export Plug-In . SVG Version: 2.1.1 Build 1)  -->
  <defs>
    <style>
      .st0 {
        fill: #23201b;
      }
    </style>
  </defs>
  <g>
    <path class="st0" d="M80.84,134.84c0-12.97,16.64-17.03,28.54-17.03,17.79,0,27.06,7.12,28.42,8.2.12,3.42.24,6.81.24,10.23h5.21c0-8.32-.12-13.97-.12-22.37h-4.9c-.2,2.23-.32,4.38-.44,6.49-3.82-2.67-12.86-7.76-28.18-7.76-13.73,0-34.82,5.09-34.82,22.69,0,27.58,65.79,4.97,65.79,28.85,0,14.45-17.55,18.71-30.01,18.71-15.32,0-26.94-9.03-31.08-12.34l-.44-9.99h-5.01v25.23h5.45v-9.15c5.21,4.14,16.48,11.78,31.48,11.78s35.34-5.85,35.34-24.56c0-29.09-65.47-8.52-65.47-28.97Z"/>
    <path class="st0" d="M256.56,114.94v13.61h5.41v-8.2h29.29v60.06h-9.27v5.33h24.04v-5.33h-9.35v-60.06h29.37v8.2h5.45v-13.61h-74.94Z"/>
    <path class="st0" d="M512.59,182.21c-7,0-10.19-4.66-12.22-11.82l-3.94-13.93c12.14-.96,23.84-7.76,23.84-21.29,0-12.66-9.07-20.46-28.22-20.46-12.78,0-25.43.12-50.98.12v5.53c2.67,0,5.01-.08,7.56-.08v60.14h-7.56v5.33h22.57v-5.33h-9.59v-23.44h36.54l4.34,15.76c2.47,8.84,6.49,14.92,16.08,14.92,2.67,0,5.85-.56,9.71-1.71v-5.33c-3.1,1.07-5.77,1.59-8.12,1.59ZM494.4,152.08h-40.36v-31.8c14.37-.12,26.19-.12,37.05-.12,15.76,0,22.77,5.53,22.77,15.2,0,7.88-7,16.72-19.46,16.72Z"/>
    <path class="st0" d="M706.7,161.99v18.43h-59.7v-28.22h34.47v-5.41h-34.47v-26.43h57.67v17.15h5.45v-22.57h-76.02v5.41h7.56v60.06h-7.56v5.33h78.05v-23.76h-5.45Z"/>
    <path class="st0" d="M828.52,114.94v5.41h7.56v60.06h-7.56v5.33h22.45l.12-5.33h-9.59v-28.74h41.87v-5.45h-41.87v-25.87h57.59v17.15h5.45v-22.57h-76.02Z"/>
    <path class="st0" d="M1078.63,180.42c-11.18-22.17-22.13-44.42-33.23-66.55h-5.93l-33.11,66.55h-7.56v5.33h22.88v-5.01l-9.47-.2c3.62-7.48,7.44-14.92,11.06-22.37h38.21l11.3,22.37c-3.18.08-6.49.2-9.71.2.12,1.79.12,3.18.12,5.01h23v-5.33h-7.56ZM1025.81,152.83c5.53-10.87,10.87-21.81,16.4-32.68h.44l16.28,32.68h-33.11Z"/>
  </g>
  <g>
    <path class="st0" d="M1405.09,197.46c-1.72.65-3.87,1.29-6.24,1.29-13.8,0-36.39-16.57-65.24-60.29l52.74-36.82h18.53v-24.12h-72.34v22.4c5.81.65,11.62,1.29,17.43,1.72l-81.16,52.98v-52.98h18.29v-24.12h-57.69v24.12h15.06v95.39h-15.06v23.69h57.69v-23.69h-18.29v-17l41.12-26.92c35.31,47.36,55.78,71.27,78.58,71.27,5.41,0,11-1.29,16.81-3.23,0-7.99-.22-15.73-.22-23.69Z"/>
    <path class="st0" d="M1664.18,169.68c0,1.78-.08,6.78-.19,12.08-.11,6.29-.24,12.96-.24,15.06h-200.14c5.19-38.97,46.74-33.59,81.19-44.35,18.07-5.59,31.87-17.24,31.87-37.89,0-29.93-32.73-42.01-63.09-42.01-21.54,0-38.97,4.95-48.89,12.94l-2.37-7.99h-21.08v48.25h22.37l1.29-13.8c3.9-8.82,23.69-15.71,47.17-15.71,17.64,0,35.1,4.52,35.1,19.82,0,17.64-33.37,17.86-48.03,20.65-38.97,7.53-63.93,29.07-63.93,71.91,0,2.58.22,5.41.65,12.08h252.23v-51.04h-23.91Z"/>
    <path class="st0" d="M1677.09,72.14c-45.64,0-75.79,30.15-75.79,77.53,0,11.78,2.07,22.56,5.92,32.08h28.78c-6-9.04-9.28-20.68-9.28-34.24,0-32.3,19.58-51.9,50.37-51.9s51.26,21.76,51.26,54.92c0,20.28-7.91,35.55-21.41,44.08v26.3c28.94-10.22,46.79-36.41,46.79-72.75,0-45.45-30.77-76.03-76.65-76.03Z"/>
    <path class="st0" d="M1851.59,72.14c-45.64,0-75.78,30.15-75.78,77.53s30.58,76,76.43,76,76-30.15,76-77.51-30.79-76.03-76.65-76.03ZM1852.03,202.41c-31.22,0-50.83-21.73-50.83-54.89s19.61-51.9,50.4-51.9,51.23,21.76,51.23,54.92-20.01,51.88-50.8,51.88Z"/>
  </g>
</svg>